<svg width="50" height="43" viewBox="0 0 50 43" fill="none" xmlns="http://www.w3.org/2000/svg">
    <path fill-rule="evenodd" clip-rule="evenodd"
        d="M6.07331 21.4028L6.12567 21.6122C7.48697 21.8914 8.60394 22.7641 9.47658 24.2301C10.3492 25.6612 10.7855 27.5112 10.7855 29.78V35.1206C10.7855 36.3073 11.0473 37.0753 11.5709 37.4243C12.0945 37.7734 13.0893 37.9479 14.5553 37.9479V42.8172C11.4836 42.8172 9.17988 42.1889 7.64405 40.9323C6.14312 39.7106 5.39266 37.8432 5.39266 35.33V29.78C5.39266 27.8952 4.95634 26.4117 4.08371 25.3296C3.21107 24.2126 2.18137 23.6542 0.994588 23.6542H0.104502V19.3608H0.994588C2.18137 19.3608 3.21107 18.8198 4.08371 17.7377C4.95634 16.6207 5.39266 15.1198 5.39266 13.2349V7.89442C5.39266 5.38124 6.14312 3.5138 7.64405 2.29212C9.17988 1.03552 11.4836 0.407229 14.5553 0.407229V5.27652C13.0893 5.27652 12.0945 5.45105 11.5709 5.8001C11.0473 6.11425 10.7855 6.88216 10.7855 8.10385V13.2349C10.7855 15.5038 10.3492 17.3712 9.47658 18.8372C8.60394 20.2683 7.46952 21.1235 6.07331 21.4028ZM43.4985 21.4028L43.4462 21.6122C42.0849 21.8914 40.9679 22.7641 40.0953 24.2301C39.2226 25.6612 38.7863 27.5112 38.7863 29.78V35.1206C38.7863 36.3073 38.5245 37.0753 38.0009 37.4243C37.4774 37.7734 36.4826 37.9479 35.0165 37.9479V42.8172C38.0882 42.8172 40.392 42.1889 41.9278 40.9323C43.4287 39.7106 44.1792 37.8432 44.1792 35.33V29.78C44.1792 27.8952 44.6155 26.4117 45.4881 25.3296C46.3608 24.2126 47.3905 23.6542 48.5773 23.6542H49.4673V19.3608H48.5773C47.3905 19.3608 46.3608 18.8198 45.4881 17.7377C44.6155 16.6207 44.1792 15.1198 44.1792 13.2349V7.89442C44.1792 5.38124 43.4287 3.5138 41.9278 2.29212C40.392 1.03552 38.0882 0.407229 35.0165 0.407229V5.27652C36.4826 5.27652 37.4774 5.45105 38.0009 5.8001C38.5245 6.11425 38.7863 6.88216 38.7863 8.10385V13.2349C38.7863 15.5038 39.2226 17.3712 40.0953 18.8372C40.9679 20.2683 42.1023 21.1235 43.4985 21.4028ZM19.1283 7.00723C19.19 7.00245 19.2519 7.00005 19.3139 7.00005H21.0902H24.0388H25.5046C31.3989 7.00005 36.1772 11.7783 36.1772 17.6727C36.1772 23.567 31.3989 28.3453 25.5046 28.3453H20.3639V28.4007V31.1946V36.0001H20.0286H15.5584H15.2232V31.1946V28.4007V23.5953H15.3907V23.5398H25.5046C28.7449 23.5398 31.3717 20.913 31.3717 17.6727C31.3717 14.4323 28.7449 11.8055 25.5046 11.8055H24.0388H21.0902H19.8212C19.8119 11.9108 19.8055 12.0401 19.8055 12.1967C19.8055 12.362 19.8111 12.5025 19.8197 12.6209H22.1722L25.8666 12.5102C25.8906 12.5095 25.9146 12.5091 25.9386 12.5091C26.5949 12.5091 27.8802 12.6272 29.0051 13.5957C30.2054 14.6291 30.7312 16.1931 30.7013 18.0467C30.6759 19.6169 29.9859 20.8473 29.1025 21.6557C28.3338 22.3591 27.2418 22.8929 26.1278 22.8679H15.2235V18.0624H25.8861C25.8906 18.0445 25.8957 18.0147 25.8965 17.9691C25.9015 17.6536 25.8741 17.4452 25.8466 17.3184L22.2802 17.4253C22.2562 17.426 22.2322 17.4264 22.2082 17.4264H19.0331C18.9978 17.4264 18.9625 17.4256 18.9272 17.424C18.27 17.395 17.0553 17.2051 16.1138 16.0668C15.2674 15.0435 15 13.6702 15 12.1967C15 10.6379 15.3513 9.19909 16.378 8.18018C17.4012 7.1649 18.6341 7.04551 19.1283 7.00723Z"
        fill="#56b887" />
</svg>