<svg width="86" height="102" viewBox="0 0 86 102" fill="none" xmlns="http://www.w3.org/2000/svg">
<path d="M1.69029 56.7165L21.5713 38.7672L26.3202 44.1601L13.1199 56.3946L26.9641 68.3876L21.8128 74.1024L1.69029 56.7165Z" fill="#EBEBEB"/>
<path d="M84.1033 56.1531L64.2222 74.1024L59.4733 68.7095L72.6737 56.475L58.8294 44.482L63.9808 38.7672L84.1033 56.1531Z" fill="#EBEBEB"/>
<path fill-rule="evenodd" clip-rule="evenodd" d="M37.1941 40C37.1226 40 37.0511 40.0028 36.9797 40.0083C36.4087 40.0525 34.9842 40.1905 33.8021 41.3635C32.6158 42.5407 32.21 44.2032 32.21 46.0041C32.21 47.7066 32.5189 49.2934 33.4968 50.4756C34.5847 51.7908 35.9881 52.0103 36.7474 52.0437C36.7881 52.0455 36.8289 52.0464 36.8697 52.0464H40.5382C40.566 52.0464 40.5937 52.046 40.6214 52.0452L44.742 51.9217C44.7738 52.0683 44.8055 52.309 44.7996 52.6736C44.7987 52.7262 44.7929 52.7606 44.7876 52.7813H32.4682V58.3335H45.0669C46.3539 58.3625 47.6157 57.7457 48.5039 56.933C49.5245 55.999 50.3218 54.5774 50.3511 52.7632C50.3856 50.6215 49.7781 48.8145 48.3913 47.6205C47.0916 46.5015 45.6065 46.3651 44.8483 46.3651C44.8206 46.3651 44.7929 46.3655 44.7651 46.3664L40.4967 46.4942H37.7786C37.7686 46.3575 37.7622 46.1952 37.7622 46.0041C37.7622 45.8232 37.7695 45.6738 37.7803 45.5522H39.2464H42.6532H44.3466C48.0905 45.5522 51.1255 48.5872 51.1255 52.331C51.1255 56.0749 48.0905 59.1099 44.3466 59.1099H32.6612V59.1738H32.4677V64.726V67.954V73.5062H32.8551H38.0199H38.4073V67.954V64.726V64.6621H44.3466C51.1569 64.6621 56.6777 59.1413 56.6777 52.331C56.6777 45.5208 51.1569 40 44.3466 40H42.6532H39.2464H37.1941Z" fill="url(#paint0_linear_57_239)"/>
<defs>
<linearGradient id="paint0_linear_57_239" x1="34.5" y1="40.0479" x2="45" y2="68.0479" gradientUnits="userSpaceOnUse">
<stop stop-color="#25E686"/>
<stop offset="1" stop-color="#35C1D5"/>
</linearGradient>
</defs>
</svg>
